{
	"patcher" : 	{
		"fileversion" : 1,
		"appversion" : 		{
			"major" : 8,
			"minor" : 1,
			"revision" : 8,
			"architecture" : "x64",
			"modernui" : 1
		}
,
		"classnamespace" : "box",
		"rect" : [ 34.0, 78.0, 640.0, 480.0 ],
		"bglocked" : 0,
		"openinpresentation" : 1,
		"default_fontsize" : 12.0,
		"default_fontface" : 0,
		"default_fontname" : "Arial",
		"gridonopen" : 1,
		"gridsize" : [ 15.0, 15.0 ],
		"gridsnaponopen" : 1,
		"objectsnaponopen" : 1,
		"statusbarvisible" : 2,
		"toolbarvisible" : 1,
		"lefttoolbarpinned" : 0,
		"toptoolbarpinned" : 0,
		"righttoolbarpinned" : 0,
		"bottomtoolbarpinned" : 0,
		"toolbars_unpinned_last_save" : 0,
		"tallnewobj" : 0,
		"boxanimatetime" : 200,
		"enablehscroll" : 1,
		"enablevscroll" : 1,
		"devicewidth" : 0.0,
		"description" : "",
		"digest" : "",
		"tags" : "",
		"style" : "",
		"subpatcher_template" : "",
		"assistshowspatchername" : 0,
		"boxes" : [ 			{
				"box" : 				{
					"fontface" : 0,
					"fontname" : "HACKED",
					"fontsize" : 20.0,
					"id" : "obj-13",
					"maxclass" : "comment",
					"numinlets" : 1,
					"numoutlets" : 0,
					"patching_rect" : [ 1718.768237826370296, 189.919754087924957, 196.0, 27.0 ],
					"presentation" : 1,
					"presentation_rect" : [ 671.313992619514352, 241.03846150636673, 39.789587438106537, 27.0 ],
					"text" : "PAN",
					"textcolor" : [ 0.419607843137255, 0.654901960784314, 1.0, 1.0 ]
				}

			}
, 			{
				"box" : 				{
					"activedialcolor" : [ 0.419607843137255, 0.654901960784314, 1.0, 1.0 ],
					"fgdialcolor" : [ 0.0, 0.0, 0.0, 1.0 ],
					"id" : "obj-7",
					"maxclass" : "live.dial",
					"needlecolor" : [ 0.0, 0.0, 0.0, 1.0 ],
					"numinlets" : 1,
					"numoutlets" : 2,
					"outlettype" : [ "", "float" ],
					"parameter_enable" : 1,
					"patching_rect" : [ 976.584112524986381, 2028.0, 41.0, 48.0 ],
					"presentation" : 1,
					"presentation_rect" : [ 671.313992619514352, 323.751418024301529, 41.0, 48.0 ],
					"saved_attribute_attributes" : 					{
						"valueof" : 						{
							"parameter_initial" : [ 63.0 ],
							"parameter_initial_enable" : 1,
							"parameter_longname" : "live.dial",
							"parameter_shortname" : "PAN",
							"parameter_type" : 0,
							"parameter_unitstyle" : 0
						}

					}
,
					"varname" : "live.dial"
				}

			}
, 			{
				"box" : 				{
					"id" : "obj-6",
					"maxclass" : "newobj",
					"numinlets" : 4,
					"numoutlets" : 2,
					"outlettype" : [ "signal", "signal" ],
					"patching_rect" : [ 868.0, 2084.0, 181.876168787479628, 22.0 ],
					"text" : "pan2"
				}

			}
, 			{
				"box" : 				{
					"id" : "obj-73",
					"maxclass" : "newobj",
					"numinlets" : 2,
					"numoutlets" : 1,
					"outlettype" : [ "signal" ],
					"patching_rect" : [ 967.194921135902405, 1152.000034332275391, 29.5, 22.0 ],
					"text" : "*~"
				}

			}
, 			{
				"box" : 				{
					"bgcolor" : [ 0.776470588235294, 0.768627450980392, 0.768627450980392, 0.0 ],
					"fontname" : "HACKED",
					"fontsize" : 72.0,
					"id" : "obj-141",
					"maxclass" : "comment",
					"numinlets" : 1,
					"numoutlets" : 0,
					"patching_rect" : [ 1588.357125163078308, 164.394107937812805, 551.0, 82.0 ],
					"presentation" : 1,
					"presentation_rect" : [ 683.255764941374423, 157.0, 75.074464201927185, 82.0 ],
					"text" : "///",
					"textcolor" : [ 0.419607843137255, 0.654901960784314, 1.0, 1.0 ]
				}

			}
, 			{
				"box" : 				{
					"fontface" : 0,
					"fontname" : "HACKED",
					"fontsize" : 20.0,
					"id" : "obj-138",
					"maxclass" : "comment",
					"numinlets" : 1,
					"numoutlets" : 0,
					"patching_rect" : [ 1888.642839312553406, 588.578407943248749, 196.0, 27.0 ],
					"presentation" : 1,
					"presentation_rect" : [ 637.313988447189217, 788.792248696088791, 68.058818817138672, 27.0 ],
					"text" : "MASTER",
					"textcolor" : [ 0.419607843137255, 0.654901960784314, 1.0, 1.0 ]
				}

			}
, 			{
				"box" : 				{
					"bgcolor" : [ 0.776470588235294, 0.768627450980392, 0.768627450980392, 1.0 ],
					"fontname" : "HACKED",
					"fontsize" : 36.0,
					"id" : "obj-136",
					"maxclass" : "comment",
					"numinlets" : 1,
					"numoutlets" : 0,
					"patching_rect" : [ 1740.357132792472839, 72.727446556091309, 311.0, 44.0 ],
					"presentation" : 1,
					"presentation_rect" : [ 122.0, 175.0, 628.686795711517334, 44.0 ],
					"text" : "CVD SYNTH",
					"textcolor" : [ 0.419607843137255, 0.654901960784314, 1.0, 1.0 ]
				}

			}
, 			{
				"box" : 				{
					"fontface" : 0,
					"fontname" : "HACKED",
					"fontsize" : 16.0,
					"id" : "obj-113",
					"maxclass" : "comment",
					"numinlets" : 1,
					"numoutlets" : 0,
					"patching_rect" : [ 1871.642839312553406, 545.690474510192871, 159.0, 23.0 ],
					"presentation" : 1,
					"presentation_rect" : [ 147.385563353697421, 660.887933433055878, 107.0, 23.0 ],
					"text" : "Wave selector",
					"textcolor" : [ 0.0, 0.0, 0.0, 1.0 ]
				}

			}
, 			{
				"box" : 				{
					"fontface" : 0,
					"fontname" : "HACKED",
					"fontsize" : 16.0,
					"id" : "obj-111",
					"maxclass" : "comment",
					"numinlets" : 1,
					"numoutlets" : 0,
					"patching_rect" : [ 2099.456827759742737, 493.857141017913818, 159.0, 23.0 ],
					"presentation" : 1,
					"presentation_rect" : [ 147.385563353697421, 284.0, 107.0, 23.0 ],
					"text" : "Wave selector",
					"textcolor" : [ 0.0, 0.0, 0.0, 1.0 ]
				}

			}
, 			{
				"box" : 				{
					"id" : "obj-108",
					"linecount" : 3,
					"maxclass" : "comment",
					"numinlets" : 1,
					"numoutlets" : 0,
					"patching_rect" : [ 2099.456827759742737, 603.690474510192871, 37.058818817138672, 47.0 ],
					"presentation" : 1,
					"presentation_rect" : [ 614.255764941374423, 629.503314197063446, 75.074464201927185, 20.0 ],
					"text" : "FEEDBACK",
					"textcolor" : [ 1.0, 1.0, 1.0, 1.0 ]
				}

			}
, 			{
				"box" : 				{
					"id" : "obj-107",
					"maxclass" : "comment",
					"numinlets" : 1,
					"numoutlets" : 0,
					"patching_rect" : [ 2214.142839312553406, 587.344355165958405, 37.058818817138672, 20.0 ],
					"presentation" : 1,
					"presentation_rect" : [ 488.369917968908908, 702.653880655765533, 37.058818817138672, 20.0 ],
					"text" : "WET",
					"textcolor" : [ 1.0, 1.0, 1.0, 1.0 ]
				}

			}
, 			{
				"box" : 				{
					"id" : "obj-106",
					"maxclass" : "comment",
					"numinlets" : 1,
					"numoutlets" : 0,
					"patching_rect" : [ 2154.642839312553406, 588.578407943248749, 37.058818817138672, 20.0 ],
					"presentation" : 1,
					"presentation_rect" : [ 428.885563353697421, 702.653880655765533, 37.058818817138672, 20.0 ],
					"text" : "DRY",
					"textcolor" : [ 1.0, 1.0, 1.0, 1.0 ]
				}

			}
, 			{
				"box" : 				{
					"fontface" : 0,
					"fontname" : "HACKED",
					"fontsize" : 20.0,
					"id" : "obj-101",
					"maxclass" : "comment",
					"numinlets" : 1,
					"numoutlets" : 0,
					"patching_rect" : [ 1487.052261928717144, 91.022320955991745, 196.0, 27.0 ],
					"presentation" : 1,
					"presentation_rect" : [ 540.0, 452.792248696088791, 68.058818817138672, 27.0 ],
					"text" : "DELAY",
					"textcolor" : [ 0.419607843137255, 0.654901960784314, 1.0, 1.0 ]
				}

			}
, 			{
				"box" : 				{
					"angle" : 270.0,
					"bgcolor" : [ 0.776470588235294, 0.768627450980392, 0.768627450980392, 1.0 ],
					"id" : "obj-97",
					"maxclass" : "panel",
					"mode" : 0,
					"numinlets" : 1,
					"numoutlets" : 0,
					"patching_rect" : [ 1603.666698575019836, 146.5, 128.0, 128.0 ],
					"presentation" : 1,
					"presentation_rect" : [ 428.48833373949617, 286.46153849363327, 83.0, 23.0 ],
					"proportion" : 0.5,
					"rounded" : 0
				}

			}
, 			{
				"box" : 				{
					"activedialcolor" : [ 0.419607843137255, 0.654901960784314, 1.0, 1.0 ],
					"activefgdialcolor" : [ 0.0, 0.0, 0.0, 1.0 ],
					"activeneedlecolor" : [ 0.0, 0.0, 0.0, 1.0 ],
					"dialcolor" : [ 0.0, 0.0, 0.0, 1.0 ],
					"id" : "obj-95",
					"maxclass" : "live.dial",
					"needlecolor" : [ 0.0, 0.0, 0.0, 1.0 ],
					"numinlets" : 1,
					"numoutlets" : 2,
					"outlettype" : [ "", "float" ],
					"parameter_enable" : 1,
					"patching_rect" : [ 1513.0, 1339.882357358932495, 41.0, 48.0 ],
					"presentation" : 1,
					"presentation_rect" : [ 553.742706210840311, 348.46153849363327, 41.0, 48.0 ],
					"saved_attribute_attributes" : 					{
						"valueof" : 						{
							"parameter_initial" : [ 1.0 ],
							"parameter_initial_enable" : 1,
							"parameter_longname" : "live.dial[3]",
							"parameter_mmax" : 20.0,
							"parameter_shortname" : "Q",
							"parameter_type" : 1,
							"parameter_unitstyle" : 0
						}

					}
,
					"varname" : "live.dial[3]"
				}

			}
, 			{
				"box" : 				{
					"activedialcolor" : [ 0.419607843137255, 0.654901960784314, 1.0, 1.0 ],
					"activefgdialcolor" : [ 0.0, 0.0, 0.0, 1.0 ],
					"activeneedlecolor" : [ 0.0, 0.0, 0.0, 1.0 ],
					"dialcolor" : [ 0.0, 0.0, 0.0, 1.0 ],
					"id" : "obj-94",
					"maxclass" : "live.dial",
					"needlecolor" : [ 0.0, 0.0, 0.0, 1.0 ],
					"numinlets" : 1,
					"numoutlets" : 2,
					"outlettype" : [ "", "float" ],
					"parameter_enable" : 1,
					"patching_rect" : [ 1450.428571428571558, 1339.882357358932495, 41.0, 48.0 ],
					"presentation" : 1,
					"presentation_rect" : [ 491.171277639411869, 348.46153849363327, 41.0, 48.0 ],
					"saved_attribute_attributes" : 					{
						"valueof" : 						{
							"parameter_initial" : [ 1.0 ],
							"parameter_initial_enable" : 1,
							"parameter_longname" : "live.dial[2]",
							"parameter_mmax" : 20.0,
							"parameter_shortname" : "GAIN",
							"parameter_type" : 0,
							"parameter_unitstyle" : 0
						}

					}
,
					"varname" : "live.dial[2]"
				}

			}
, 			{
				"box" : 				{
					"activedialcolor" : [ 0.419607843137255, 0.654901960784314, 1.0, 1.0 ],
					"activefgdialcolor" : [ 0.0, 0.0, 0.0, 1.0 ],
					"activeneedlecolor" : [ 0.0, 0.0, 0.0, 1.0 ],
					"dialcolor" : [ 0.0, 0.0, 0.0, 1.0 ],
					"id" : "obj-93",
					"maxclass" : "live.dial",
					"needlecolor" : [ 0.0, 0.0, 0.0, 1.0 ],
					"numinlets" : 1,
					"numoutlets" : 2,
					"outlettype" : [ "", "float" ],
					"parameter_enable" : 1,
					"patching_rect" : [ 1388.14285714285711, 1339.882357358932495, 41.0, 48.0 ],
					"presentation" : 1,
					"presentation_rect" : [ 428.885563353697421, 348.46153849363327, 41.0, 48.0 ],
					"saved_attribute_attributes" : 					{
						"valueof" : 						{
							"parameter_initial" : [ 400 ],
							"parameter_initial_enable" : 1,
							"parameter_longname" : "live.dial[1]",
							"parameter_mmax" : 15000.0,
							"parameter_shortname" : "CUTOFF",
							"parameter_type" : 0,
							"parameter_unitstyle" : 0
						}

					}
,
					"varname" : "live.dial[1]"
				}

			}
, 			{
				"box" : 				{
					"fontface" : 0,
					"fontname" : "HACKED",
					"fontsize" : 20.0,
					"id" : "obj-69",
					"maxclass" : "comment",
					"numinlets" : 1,
					"numoutlets" : 0,
					"patching_rect" : [ 2161.028402666250713, 324.857141017913818, 196.0, 27.0 ],
					"presentation" : 1,
					"presentation_rect" : [ 482.641868230842533, 241.03846150636673, 58.058818817138672, 27.0 ],
					"text" : "FILTER",
					"textcolor" : [ 0.419607843137255, 0.654901960784314, 1.0, 1.0 ]
				}

			}
, 			{
				"box" : 				{
					"fontface" : 0,
					"fontname" : "HACKED",
					"fontsize" : 20.0,
					"id" : "obj-67",
					"maxclass" : "comment",
					"numinlets" : 1,
					"numoutlets" : 0,
					"patching_rect" : [ 1935.028402666250713, 523.745074450969696, 196.0, 27.0 ],
					"presentation" : 1,
					"presentation_rect" : [ 457.369917968908908, 788.792248696088791, 68.058818817138672, 27.0 ],
					"text" : "FM OSC",
					"textcolor" : [ 0.419607843137255, 0.654901960784314, 1.0, 1.0 ]
				}

			}
, 			{
				"box" : 				{
					"fontname" : "HACKED",
					"id" : "obj-65",
					"maxclass" : "comment",
					"numinlets" : 1,
					"numoutlets" : 0,
					"patching_rect" : [ 1267.0, 321.0, 111.0, 19.0 ],
					"presentation" : 1,
					"presentation_rect" : [ 515.951558490594152, 849.76993727684021, 37.666664481163025, 19.0 ],
					"text" : "DEPTH",
					"textcolor" : [ 1.0, 1.0, 1.0, 1.0 ]
				}

			}
, 			{
				"box" : 				{
					"fontname" : "HACKED",
					"id" : "obj-62",
					"maxclass" : "comment",
					"numinlets" : 1,
					"numoutlets" : 0,
					"patching_rect" : [ 1169.941181182861328, 321.0, 112.0, 19.0 ],
					"presentation" : 1,
					"presentation_rect" : [ 414.755481322606329, 849.76993727684021, 61.555554032325745, 19.0 ],
					"text" : "HARMONICS",
					"textcolor" : [ 1.0, 1.0, 1.0, 1.0 ]
				}

			}
, 			{
				"box" : 				{
					"bgcolor" : [ 0.419607843137255, 0.654901960784314, 1.0, 1.0 ],
					"id" : "obj-60",
					"maxclass" : "dial",
					"needlecolor" : [ 0.745098039215686, 1.0, 0.223529411764706, 1.0 ],
					"numinlets" : 1,
					"numoutlets" : 1,
					"outlettype" : [ "float" ],
					"parameter_enable" : 0,
					"patching_rect" : [ 1176.0, 344.333333492279053, 40.0, 40.0 ],
					"presentation" : 1,
					"presentation_rect" : [ 425.533258338769201, 868.769927740097046, 40.0, 40.0 ]
				}

			}
, 			{
				"box" : 				{
					"bgcolor" : [ 0.419607843137255, 0.654901960784314, 1.0, 1.0 ],
					"id" : "obj-59",
					"maxclass" : "dial",
					"needlecolor" : [ 0.745098039215686, 1.0, 0.223529411764706, 1.0 ],
					"numinlets" : 1,
					"numoutlets" : 1,
					"outlettype" : [ "float" ],
					"parameter_enable" : 0,
					"patching_rect" : [ 1267.0, 344.333333492279053, 40.0, 40.0 ],
					"presentation" : 1,
					"presentation_rect" : [ 514.784890731175665, 868.769927740097046, 40.0, 40.0 ]
				}

			}
, 			{
				"box" : 				{
					"fontface" : 0,
					"fontname" : "HACKED",
					"fontsize" : 20.0,
					"id" : "obj-56",
					"maxclass" : "comment",
					"numinlets" : 1,
					"numoutlets" : 0,
					"patching_rect" : [ 1930.028402666250713, 389.857141017913818, 196.0, 27.0 ],
					"presentation" : 1,
					"presentation_rect" : [ 218.356153945128085, 617.153880655765533, 58.058818817138672, 27.0 ],
					"text" : "OSC 2",
					"textcolor" : [ 0.419607843137255, 0.654901960784314, 1.0, 1.0 ]
				}

			}
, 			{
				"box" : 				{
					"fontface" : 0,
					"fontname" : "HACKED",
					"fontsize" : 20.0,
					"id" : "obj-35",
					"maxclass" : "comment",
					"numinlets" : 1,
					"numoutlets" : 0,
					"patching_rect" : [ 1888.642839312553406, 301.857141017913818, 196.0, 27.0 ],
					"presentation" : 1,
					"presentation_rect" : [ 228.813988447189331, 245.0, 58.058818817138672, 27.0 ],
					"text" : "OSC 1",
					"textcolor" : [ 0.419607843137255, 0.654901960784314, 1.0, 1.0 ]
				}

			}
, 			{
				"box" : 				{
					"id" : "obj-3",
					"maxclass" : "message",
					"numinlets" : 2,
					"numoutlets" : 1,
					"outlettype" : [ "" ],
					"patching_rect" : [ 783.577274322509766, 492.929672747850418, 35.0, 22.0 ],
					"presentation" : 1,
					"presentation_rect" : [ 147.385563353697421, 814.769927740097046, 35.0, 22.0 ],
					"text" : "clear"
				}

			}
, 			{
				"box" : 				{
					"id" : "obj-44",
					"maxclass" : "newobj",
					"numinlets" : 3,
					"numoutlets" : 1,
					"outlettype" : [ "signal" ],
					"patching_rect" : [ 1237.686795711517334, 1068.68209707736969, 49.0, 22.0 ],
					"text" : "tri~ 440"
				}

			}
, 			{
				"box" : 				{
					"fontname" : "Arial",
					"fontsize" : 11.595186999999999,
					"id" : "obj-36",
					"maxclass" : "newobj",
					"numinlets" : 2,
					"numoutlets" : 1,
					"outlettype" : [ "signal" ],
					"patching_rect" : [ 1087.686795711517334, 1068.68209707736969, 64.0, 21.0 ],
					"text" : "cycle~ 440"
				}

			}
, 			{
				"box" : 				{
					"fontname" : "Arial",
					"fontsize" : 11.595186999999999,
					"id" : "obj-39",
					"maxclass" : "newobj",
					"numinlets" : 2,
					"numoutlets" : 1,
					"outlettype" : [ "signal" ],
					"patching_rect" : [ 1162.686795711517334, 1068.68209707736969, 58.0, 21.0 ],
					"text" : "saw~ 440"
				}

			}
, 			{
				"box" : 				{
					"fontname" : "Arial",
					"fontsize" : 13.0,
					"id" : "obj-41",
					"maxclass" : "newobj",
					"numinlets" : 4,
					"numoutlets" : 1,
					"outlettype" : [ "signal" ],
					"patching_rect" : [ 1012.686795711517334, 1103.68209707736969, 244.0, 23.0 ],
					"text" : "selector~ 3"
				}

			}
, 			{
				"box" : 				{
					"id" : "obj-135",
					"maxclass" : "newobj",
					"numinlets" : 2,
					"numoutlets" : 0,
					"patching_rect" : [ 868.019221782684326, 2318.393942534923553, 60.75, 22.0 ],
					"text" : "dac~"
				}

			}
, 			{
				"box" : 				{
					"id" : "obj-86",
					"maxclass" : "comment",
					"numinlets" : 1,
					"numoutlets" : 0,
					"patching_rect" : [ 1330.0, 1731.038462340831757, 28.0, 20.0 ],
					"text" : "FB"
				}

			}
, 			{
				"box" : 				{
					"id" : "obj-124",
					"maxclass" : "comment",
					"numinlets" : 1,
					"numoutlets" : 0,
					"patching_rect" : [ 969.307701647281647, 1962.0, 37.0, 20.0 ],
					"text" : "DRY"
				}

			}
, 			{
				"box" : 				{
					"id" : "obj-11",
					"maxclass" : "comment",
					"numinlets" : 1,
					"numoutlets" : 0,
					"patching_rect" : [ 1029.292056262493134, 1962.0, 36.0, 20.0 ],
					"text" : "WET"
				}

			}
, 			{
				"box" : 				{
					"id" : "obj-125",
					"maxclass" : "comment",
					"numinlets" : 1,
					"numoutlets" : 0,
					"patching_rect" : [ 1236.0, 1358.999948024749756, 150.0, 20.0 ],
					"text" : "FILTER SECTION"
				}

			}
, 			{
				"box" : 				{
					"id" : "obj-105",
					"maxclass" : "comment",
					"numinlets" : 1,
					"numoutlets" : 0,
					"patching_rect" : [ 1109.384634256362915, 1875.499980211257935, 150.0, 20.0 ],
					"text" : "FEEDBACK DELAY"
				}

			}
, 			{
				"box" : 				{
					"id" : "obj-126",
					"knobcolor" : [ 0.419607843137255, 0.654901960784314, 1.0, 1.0 ],
					"maxclass" : "gain~",
					"multichannelvariant" : 0,
					"numinlets" : 1,
					"numoutlets" : 2,
					"outlettype" : [ "signal", "" ],
					"parameter_enable" : 0,
					"patching_rect" : [ 976.807701647281647, 1813.653880655765533, 22.0, 140.0 ],
					"presentation" : 1,
					"presentation_rect" : [ 436.414972762266757, 560.653880655765533, 22.0, 140.0 ]
				}

			}
, 			{
				"box" : 				{
					"id" : "obj-127",
					"knobcolor" : [ 0.419607843137255, 0.654901960784314, 1.0, 1.0 ],
					"maxclass" : "gain~",
					"multichannelvariant" : 0,
					"numinlets" : 1,
					"numoutlets" : 2,
					"outlettype" : [ "signal", "" ],
					"parameter_enable" : 0,
					"patching_rect" : [ 1036.292056262493134, 1813.653880655765533, 22.0, 140.0 ],
					"presentation" : 1,
					"presentation_rect" : [ 495.899327377478244, 560.653880655765533, 22.0, 140.0 ]
				}

			}
, 			{
				"box" : 				{
					"id" : "obj-99",
					"knobcolor" : [ 0.419607843137255, 0.654901960784314, 1.0, 1.0 ],
					"maxclass" : "gain~",
					"multichannelvariant" : 0,
					"numinlets" : 1,
					"numoutlets" : 2,
					"orientation" : 1,
					"outlettype" : [ "signal", "" ],
					"parameter_enable" : 0,
					"patching_rect" : [ 1182.961555182933807, 1731.038462340831757, 150.846158146858215, 24.615380764007568 ],
					"presentation" : 1,
					"presentation_rect" : [ 576.369917968908908, 602.887933433055878, 150.846158146858215, 24.615380764007568 ]
				}

			}
, 			{
				"box" : 				{
					"id" : "obj-90",
					"maxclass" : "number",
					"numinlets" : 1,
					"numoutlets" : 2,
					"outlettype" : [ "", "bang" ],
					"parameter_enable" : 0,
					"patching_rect" : [ 1120.615375757217407, 1748.692307114601135, 50.0, 22.0 ]
				}

			}
, 			{
				"box" : 				{
					"id" : "obj-91",
					"maxclass" : "newobj",
					"numinlets" : 1,
					"numoutlets" : 1,
					"outlettype" : [ "signal" ],
					"patching_rect" : [ 1039.019221782684326, 1757.346153557300568, 49.0, 22.0 ],
					"text" : "tapout~"
				}

			}
, 			{
				"box" : 				{
					"id" : "obj-92",
					"maxclass" : "newobj",
					"numinlets" : 1,
					"numoutlets" : 1,
					"outlettype" : [ "tapconnect" ],
					"patching_rect" : [ 1039.019221782684326, 1708.355274140834808, 72.0, 22.0 ],
					"text" : "tapin~ 2000"
				}

			}
, 			{
				"box" : 				{
					"id" : "obj-128",
					"linecount" : 2,
					"maxclass" : "comment",
					"numinlets" : 1,
					"numoutlets" : 0,
					"patching_rect" : [ 1534.0, 1562.115281164646149, 150.0, 33.0 ],
					"text" : "Sourced from \"biquad~ help\""
				}

			}
, 			{
				"box" : 				{
					"id" : "obj-129",
					"lastchannelcount" : 0,
					"maxclass" : "live.gain~",
					"numinlets" : 2,
					"numoutlets" : 5,
					"outlettype" : [ "signal", "signal", "", "float", "list" ],
					"parameter_enable" : 1,
					"patching_rect" : [ 868.019221782684326, 2167.499980211257935, 186.0, 128.0 ],
					"presentation" : 1,
					"presentation_rect" : [ 618.343397855758667, 824.769927740097046, 106.0, 128.0 ],
					"saved_attribute_attributes" : 					{
						"valueof" : 						{
							"parameter_longname" : "live.gain~[2]",
							"parameter_mmax" : 6.0,
							"parameter_mmin" : -70.0,
							"parameter_shortname" : "MASTER",
							"parameter_type" : 0,
							"parameter_unitstyle" : 4
						}

					}
,
					"varname" : "live.gain~"
				}

			}
, 			{
				"box" : 				{
					"domain" : [ 20.0, 16000.0 ],
					"fontface" : 0,
					"id" : "obj-26",
					"linmarkers" : [ 0.0, 11025.0, 16537.5 ],
					"logmarkers" : [ 0.0, 100.0, 1000.0, 10000.0 ],
					"maxclass" : "filtergraph~",
					"nfilters" : 1,
					"numinlets" : 8,
					"numoutlets" : 7,
					"outlettype" : [ "list", "float", "float", "float", "float", "list", "int" ],
					"parameter_enable" : 0,
					"patching_rect" : [ 1063.0, 1502.115281164646149, 456.0, 182.0 ],
					"setfilter" : [ 0, 1, 1, 0, 0, 400.0, 1.0, 1.0, 0.0, 0.0, 0.0, 0.0, 0.0, 0.0 ]
				}

			}
, 			{
				"box" : 				{
					"fontname" : "Arial",
					"fontsize" : 13.0,
					"hidden" : 1,
					"id" : "obj-130",
					"maxclass" : "message",
					"numinlets" : 2,
					"numoutlets" : 1,
					"outlettype" : [ "" ],
					"patching_rect" : [ 1513.0, 1434.615281164646149, 48.0, 23.0 ],
					"text" : "set $1"
				}

			}
, 			{
				"box" : 				{
					"fontname" : "Arial",
					"fontsize" : 13.0,
					"hidden" : 1,
					"id" : "obj-9",
					"maxclass" : "message",
					"numinlets" : 2,
					"numoutlets" : 1,
					"outlettype" : [ "" ],
					"patching_rect" : [ 1450.428571428571558, 1434.615281164646149, 48.0, 23.0 ],
					"text" : "set $1"
				}

			}
, 			{
				"box" : 				{
					"fontname" : "Arial",
					"fontsize" : 13.0,
					"hidden" : 1,
					"id" : "obj-28",
					"maxclass" : "message",
					"numinlets" : 2,
					"numoutlets" : 1,
					"outlettype" : [ "" ],
					"patching_rect" : [ 1383.14285714285711, 1428.615281164646149, 48.0, 23.0 ],
					"text" : "set $1"
				}

			}
, 			{
				"box" : 				{
					"bubbleside" : 2,
					"fontname" : "Arial",
					"fontsize" : 13.0,
					"id" : "obj-71",
					"maxclass" : "comment",
					"numinlets" : 1,
					"numoutlets" : 0,
					"patching_rect" : [ 1500.5, 1424.115281164646149, 73.0, 21.0 ],
					"text" : "Q"
				}

			}
, 			{
				"box" : 				{
					"bgcolor" : [ 0.352941176470588, 0.352941176470588, 0.352941176470588, 1.0 ],
					"fontname" : "Arial",
					"fontsize" : 13.0,
					"format" : 6,
					"id" : "obj-131",
					"maxclass" : "flonum",
					"numinlets" : 1,
					"numoutlets" : 2,
					"outlettype" : [ "", "bang" ],
					"parameter_enable" : 0,
					"patching_rect" : [ 1513.0, 1464.115281164646149, 55.0, 23.0 ]
				}

			}
, 			{
				"box" : 				{
					"bgcolor" : [ 0.352941176470588, 0.352941176470588, 0.352941176470588, 1.0 ],
					"fontname" : "Arial",
					"fontsize" : 13.0,
					"format" : 6,
					"id" : "obj-132",
					"maxclass" : "flonum",
					"numinlets" : 1,
					"numoutlets" : 2,
					"outlettype" : [ "", "bang" ],
					"parameter_enable" : 0,
					"patching_rect" : [ 1450.428571428571558, 1464.115281164646149, 55.0, 23.0 ]
				}

			}
, 			{
				"box" : 				{
					"bgcolor" : [ 0.352941176470588, 0.352941176470588, 0.352941176470588, 1.0 ],
					"fontname" : "Arial",
					"fontsize" : 13.0,
					"format" : 6,
					"id" : "obj-75",
					"maxclass" : "flonum",
					"numinlets" : 1,
					"numoutlets" : 2,
					"outlettype" : [ "", "bang" ],
					"parameter_enable" : 0,
					"patching_rect" : [ 1388.14285714285711, 1464.115281164646149, 57.0, 23.0 ]
				}

			}
, 			{
				"box" : 				{
					"bubbleside" : 2,
					"fontname" : "Arial",
					"fontsize" : 13.0,
					"id" : "obj-82",
					"maxclass" : "comment",
					"numinlets" : 1,
					"numoutlets" : 0,
					"patching_rect" : [ 1350.74993622303009, 1413.115281164646149, 88.25, 21.0 ],
					"text" : "CUTOFF"
				}

			}
, 			{
				"box" : 				{
					"bubbleside" : 2,
					"fontname" : "Arial",
					"fontsize" : 13.0,
					"id" : "obj-83",
					"maxclass" : "comment",
					"numinlets" : 1,
					"numoutlets" : 0,
					"patching_rect" : [ 1439.428571428571558, 1424.115281164646149, 59.0, 21.0 ],
					"text" : "GAIN"
				}

			}
, 			{
				"box" : 				{
					"bubble" : 1,
					"fontname" : "Arial",
					"fontsize" : 13.0,
					"id" : "obj-29",
					"linecount" : 2,
					"maxclass" : "comment",
					"numinlets" : 1,
					"numoutlets" : 0,
					"patching_rect" : [ 920.0, 1464.115281164646149, 120.0, 40.0 ],
					"text" : "clear biquad~ if filter blows up"
				}

			}
, 			{
				"box" : 				{
					"fontname" : "Arial",
					"fontsize" : 13.0,
					"id" : "obj-133",
					"maxclass" : "message",
					"numinlets" : 2,
					"numoutlets" : 1,
					"outlettype" : [ "" ],
					"patching_rect" : [ 877.0, 1474.615281164646149, 43.0, 23.0 ],
					"presentation" : 1,
					"presentation_rect" : [ 525.885563353697421, 310.211956679821014, 43.0, 23.0 ],
					"text" : "clear"
				}

			}
, 			{
				"box" : 				{
					"fontname" : "Arial",
					"fontsize" : 13.0,
					"id" : "obj-30",
					"maxclass" : "newobj",
					"numinlets" : 6,
					"numoutlets" : 1,
					"outlettype" : [ "signal" ],
					"patching_rect" : [ 858.0, 1510.115281164646149, 92.0, 23.0 ],
					"text" : "biquad~"
				}

			}
, 			{
				"box" : 				{
					"attr" : "edit_mode",
					"bgcolor" : [ 0.352941176470588, 0.352941176470588, 0.352941176470588, 1.0 ],
					"fontface" : 0,
					"fontname" : "Arial",
					"fontsize" : 13.0,
					"id" : "obj-32",
					"lock" : 1,
					"maxclass" : "attrui",
					"numinlets" : 1,
					"numoutlets" : 1,
					"orientation" : 1,
					"outlettype" : [ "" ],
					"patching_rect" : [ 1075.745627528655859, 1435.615281164646149, 83.0, 46.0 ],
					"presentation" : 1,
					"presentation_rect" : [ 428.48833373949617, 286.46153849363327, 83.0, 46.0 ],
					"text_width" : 83.0
				}

			}
, 			{
				"box" : 				{
					"id" : "obj-2",
					"maxclass" : "newobj",
					"numinlets" : 1,
					"numoutlets" : 1,
					"outlettype" : [ "" ],
					"patching_rect" : [ 1077.0, 381.0, 70.0, 22.0 ],
					"text" : "loadmess 1"
				}

			}
, 			{
				"box" : 				{
					"id" : "obj-33",
					"maxclass" : "number",
					"numinlets" : 1,
					"numoutlets" : 2,
					"outlettype" : [ "", "bang" ],
					"parameter_enable" : 0,
					"patching_rect" : [ 1267.0, 407.0, 50.0, 22.0 ]
				}

			}
, 			{
				"box" : 				{
					"id" : "obj-31",
					"maxclass" : "number",
					"numinlets" : 1,
					"numoutlets" : 2,
					"outlettype" : [ "", "bang" ],
					"parameter_enable" : 0,
					"patching_rect" : [ 1176.0, 398.0, 50.0, 22.0 ]
				}

			}
, 			{
				"box" : 				{
					"id" : "obj-25",
					"maxclass" : "newobj",
					"numinlets" : 2,
					"numoutlets" : 1,
					"outlettype" : [ "signal" ],
					"patching_rect" : [ 1087.0, 649.903057992458344, 29.5, 22.0 ],
					"text" : "*~"
				}

			}
, 			{
				"box" : 				{
					"id" : "obj-20",
					"maxclass" : "newobj",
					"numinlets" : 2,
					"numoutlets" : 1,
					"outlettype" : [ "signal" ],
					"patching_rect" : [ 1087.0, 587.106208860874176, 29.5, 22.0 ],
					"text" : "+~"
				}

			}
, 			{
				"box" : 				{
					"id" : "obj-102",
					"maxclass" : "newobj",
					"numinlets" : 2,
					"numoutlets" : 1,
					"outlettype" : [ "signal" ],
					"patching_rect" : [ 1135.75, 587.106208860874176, 29.5, 22.0 ],
					"text" : "*~"
				}

			}
, 			{
				"box" : 				{
					"id" : "obj-103",
					"maxclass" : "newobj",
					"numinlets" : 2,
					"numoutlets" : 1,
					"outlettype" : [ "signal" ],
					"patching_rect" : [ 1118.25, 533.0, 53.75, 22.0 ],
					"text" : "cycle~"
				}

			}
, 			{
				"box" : 				{
					"id" : "obj-17",
					"maxclass" : "newobj",
					"numinlets" : 2,
					"numoutlets" : 1,
					"outlettype" : [ "signal" ],
					"patching_rect" : [ 1186.25, 533.0, 29.5, 22.0 ],
					"text" : "*~"
				}

			}
, 			{
				"box" : 				{
					"id" : "obj-16",
					"maxclass" : "newobj",
					"numinlets" : 2,
					"numoutlets" : 1,
					"outlettype" : [ "signal" ],
					"patching_rect" : [ 1267.0, 488.0, 43.0, 22.0 ],
					"text" : "cycle~"
				}

			}
, 			{
				"box" : 				{
					"id" : "obj-15",
					"maxclass" : "newobj",
					"numinlets" : 2,
					"numoutlets" : 1,
					"outlettype" : [ "signal" ],
					"patching_rect" : [ 1129.0, 484.0, 29.5, 22.0 ],
					"text" : "*~"
				}

			}
, 			{
				"box" : 				{
					"id" : "obj-14",
					"maxclass" : "newobj",
					"numinlets" : 1,
					"numoutlets" : 1,
					"outlettype" : [ "signal" ],
					"patching_rect" : [ 1267.0, 446.0, 31.0, 22.0 ],
					"text" : "sig~"
				}

			}
, 			{
				"box" : 				{
					"id" : "obj-104",
					"maxclass" : "newobj",
					"numinlets" : 1,
					"numoutlets" : 1,
					"outlettype" : [ "signal" ],
					"patching_rect" : [ 1176.0, 446.0, 31.0, 22.0 ],
					"text" : "sig~"
				}

			}
, 			{
				"box" : 				{
					"id" : "obj-8",
					"maxclass" : "newobj",
					"numinlets" : 1,
					"numoutlets" : 1,
					"outlettype" : [ "signal" ],
					"patching_rect" : [ 1087.0, 446.0, 31.0, 22.0 ],
					"text" : "sig~"
				}

			}
, 			{
				"box" : 				{
					"id" : "obj-77",
					"maxclass" : "comment",
					"numinlets" : 1,
					"numoutlets" : 0,
					"patching_rect" : [ 615.647079586982727, 730.235293626785278, 40.588230729103088, 20.0 ],
					"presentation" : 1,
					"presentation_rect" : [ 169.455368618170382, 397.869064837694168, 40.588230729103088, 20.0 ],
					"text" : "TRI",
					"textcolor" : [ 1.0, 1.0, 1.0, 1.0 ]
				}

			}
, 			{
				"box" : 				{
					"id" : "obj-78",
					"maxclass" : "comment",
					"numinlets" : 1,
					"numoutlets" : 0,
					"patching_rect" : [ 615.647079586982727, 698.411784291267395, 40.588230729103088, 20.0 ],
					"presentation" : 1,
					"presentation_rect" : [ 169.455368618170382, 366.045555502176285, 40.588230729103088, 20.0 ],
					"text" : "SAW",
					"textcolor" : [ 1.0, 1.0, 1.0, 1.0 ]
				}

			}
, 			{
				"box" : 				{
					"id" : "obj-79",
					"maxclass" : "comment",
					"numinlets" : 1,
					"numoutlets" : 0,
					"patching_rect" : [ 615.647079586982727, 670.117646813392639, 40.588230729103088, 20.0 ],
					"presentation" : 1,
					"presentation_rect" : [ 169.455368618170382, 337.751418024301529, 40.588230729103088, 20.0 ],
					"text" : "SINE",
					"textcolor" : [ 1.0, 1.0, 1.0, 1.0 ]
				}

			}
, 			{
				"box" : 				{
					"id" : "obj-80",
					"maxclass" : "comment",
					"numinlets" : 1,
					"numoutlets" : 0,
					"patching_rect" : [ 615.647079586982727, 641.616646975278854, 40.588230729103088, 20.0 ],
					"presentation" : 1,
					"presentation_rect" : [ 169.455368618170382, 309.250418186187744, 40.588230729103088, 20.0 ],
					"text" : "OFF",
					"textcolor" : [ 1.0, 1.0, 1.0, 1.0 ]
				}

			}
, 			{
				"box" : 				{
					"id" : "obj-76",
					"maxclass" : "comment",
					"numinlets" : 1,
					"numoutlets" : 0,
					"patching_rect" : [ 1033.686795711517334, 1026.506580084562302, 37.058818817138672, 20.0 ],
					"presentation" : 1,
					"presentation_rect" : [ 168.385563353697421, 774.506580084562302, 37.058818817138672, 20.0 ],
					"text" : "TRI",
					"textcolor" : [ 1.0, 1.0, 1.0, 1.0 ]
				}

			}
, 			{
				"box" : 				{
					"id" : "obj-74",
					"maxclass" : "comment",
					"numinlets" : 1,
					"numoutlets" : 0,
					"patching_rect" : [ 1033.686795711517334, 994.683070749044418, 37.058818817138672, 20.0 ],
					"presentation" : 1,
					"presentation_rect" : [ 168.385563353697421, 742.683070749044418, 37.058818817138672, 20.0 ],
					"text" : "SAW",
					"textcolor" : [ 1.0, 1.0, 1.0, 1.0 ]
				}

			}
, 			{
				"box" : 				{
					"id" : "obj-72",
					"maxclass" : "comment",
					"numinlets" : 1,
					"numoutlets" : 0,
					"patching_rect" : [ 1033.686795711517334, 966.388933271169662, 37.058818817138672, 20.0 ],
					"presentation" : 1,
					"presentation_rect" : [ 168.385563353697421, 714.388933271169662, 37.058818817138672, 20.0 ],
					"text" : "SINE",
					"textcolor" : [ 1.0, 1.0, 1.0, 1.0 ]
				}

			}
, 			{
				"box" : 				{
					"id" : "obj-70",
					"maxclass" : "comment",
					"numinlets" : 1,
					"numoutlets" : 0,
					"patching_rect" : [ 1033.686795711517334, 937.887933433055878, 37.058818817138672, 20.0 ],
					"presentation" : 1,
					"presentation_rect" : [ 168.385563353697421, 685.887933433055878, 37.058818817138672, 20.0 ],
					"text" : "OFF",
					"textcolor" : [ 1.0, 1.0, 1.0, 1.0 ]
				}

			}
, 			{
				"box" : 				{
					"id" : "obj-63",
					"maxclass" : "number",
					"minimum" : 50,
					"numinlets" : 1,
					"numoutlets" : 2,
					"outlettype" : [ "", "bang" ],
					"parameter_enable" : 0,
					"patching_rect" : [ 956.944921135902405, 1322.882357358932495, 50.0, 22.0 ]
				}

			}
, 			{
				"box" : 				{
					"id" : "obj-58",
					"maxclass" : "newobj",
					"numinlets" : 3,
					"numoutlets" : 1,
					"outlettype" : [ "signal" ],
					"patching_rect" : [ 900.444921135902405, 1365.882357358932495, 132.0, 22.0 ],
					"text" : "rampsmooth~"
				}

			}
, 			{
				"box" : 				{
					"id" : "obj-57",
					"maxclass" : "comment",
					"numinlets" : 1,
					"numoutlets" : 0,
					"patching_rect" : [ 668.577274322509766, 837.36622878909111, 150.0, 20.0 ],
					"text" : "Sourced from Max help"
				}

			}
, 			{
				"box" : 				{
					"id" : "obj-55",
					"maxclass" : "newobj",
					"numinlets" : 2,
					"numoutlets" : 1,
					"outlettype" : [ "signal" ],
					"patching_rect" : [ 900.335481762886047, 1235.020976543426514, 29.5, 22.0 ],
					"text" : "+~"
				}

			}
, 			{
				"box" : 				{
					"id" : "obj-45",
					"maxclass" : "newobj",
					"numinlets" : 3,
					"numoutlets" : 1,
					"outlettype" : [ "signal" ],
					"patching_rect" : [ 818.577274322509766, 777.36622878909111, 49.0, 22.0 ],
					"text" : "tri~ 440"
				}

			}
, 			{
				"box" : 				{
					"fontname" : "Arial",
					"fontsize" : 11.595186999999999,
					"id" : "obj-48",
					"maxclass" : "newobj",
					"numinlets" : 2,
					"numoutlets" : 1,
					"outlettype" : [ "signal" ],
					"patching_rect" : [ 668.577274322509766, 777.36622878909111, 64.0, 21.0 ],
					"text" : "cycle~ 440"
				}

			}
, 			{
				"box" : 				{
					"fontname" : "Arial",
					"fontsize" : 11.595186999999999,
					"id" : "obj-49",
					"maxclass" : "newobj",
					"numinlets" : 2,
					"numoutlets" : 1,
					"outlettype" : [ "signal" ],
					"patching_rect" : [ 743.577274322509766, 777.36622878909111, 58.0, 21.0 ],
					"text" : "saw~ 440"
				}

			}
, 			{
				"box" : 				{
					"fontname" : "Arial",
					"fontsize" : 13.0,
					"id" : "obj-50",
					"maxclass" : "number",
					"numinlets" : 1,
					"numoutlets" : 2,
					"outlettype" : [ "", "bang" ],
					"parameter_enable" : 0,
					"patching_rect" : [ 593.577274322509766, 777.36622878909111, 50.0, 23.0 ]
				}

			}
, 			{
				"box" : 				{
					"activecolor" : [ 0.419607843137255, 0.654901960784314, 1.0, 1.0 ],
					"disabled" : [ 0, 0, 0, 0 ],
					"flagmode" : 1,
					"id" : "obj-51",
					"itemtype" : 0,
					"maxclass" : "radiogroup",
					"numinlets" : 1,
					"numoutlets" : 1,
					"offset" : 29,
					"outlettype" : [ "" ],
					"parameter_enable" : 0,
					"patching_rect" : [ 593.577274322509766, 642.36622878909111, 19.0, 118.0 ],
					"presentation" : 1,
					"presentation_rect" : [ 147.385563353697421, 310.0, 19.0, 118.0 ],
					"shape" : 1,
					"size" : 4,
					"value" : 2
				}

			}
, 			{
				"box" : 				{
					"fontname" : "Arial",
					"fontsize" : 13.0,
					"id" : "obj-52",
					"maxclass" : "newobj",
					"numinlets" : 4,
					"numoutlets" : 1,
					"outlettype" : [ "signal" ],
					"patching_rect" : [ 593.577274322509766, 812.36622878909111, 244.0, 23.0 ],
					"text" : "selector~ 3"
				}

			}
, 			{
				"box" : 				{
					"fontname" : "Arial",
					"fontsize" : 13.0,
					"id" : "obj-40",
					"maxclass" : "number",
					"numinlets" : 1,
					"numoutlets" : 2,
					"outlettype" : [ "", "bang" ],
					"parameter_enable" : 0,
					"patching_rect" : [ 1012.686795711517334, 1069.381353348493576, 50.0, 23.0 ]
				}

			}
, 			{
				"box" : 				{
					"activecolor" : [ 0.419607843137255, 0.654901960784314, 1.0, 1.0 ],
					"disabled" : [ 0, 0, 0, 0 ],
					"flagmode" : 1,
					"id" : "obj-5",
					"itemtype" : 0,
					"maxclass" : "radiogroup",
					"numinlets" : 1,
					"numoutlets" : 1,
					"offset" : 29,
					"outlettype" : [ "" ],
					"parameter_enable" : 0,
					"patching_rect" : [ 1012.686795711517334, 936.381353348493576, 19.0, 118.0 ],
					"presentation" : 1,
					"presentation_rect" : [ 147.385563353697421, 684.381353348493576, 19.0, 118.0 ],
					"shape" : 1,
					"size" : 4,
					"value" : 1
				}

			}
, 			{
				"box" : 				{
					"id" : "obj-18",
					"maxclass" : "newobj",
					"numinlets" : 2,
					"numoutlets" : 1,
					"outlettype" : [ "signal" ],
					"patching_rect" : [ 539.218896687030792, 860.188677161931992, 29.5, 22.0 ],
					"text" : "*~"
				}

			}
, 			{
				"box" : 				{
					"id" : "obj-1",
					"maxclass" : "newobj",
					"numinlets" : 1,
					"numoutlets" : 1,
					"outlettype" : [ "" ],
					"patching_rect" : [ 769.0, 686.0, 32.0, 22.0 ],
					"text" : "mtof"
				}

			}
, 			{
				"box" : 				{
					"id" : "obj-81",
					"maxclass" : "message",
					"numinlets" : 2,
					"numoutlets" : 1,
					"outlettype" : [ "" ],
					"patching_rect" : [ 451.042055547237396, 492.929672747850418, 35.0, 22.0 ],
					"presentation" : 1,
					"presentation_rect" : [ 147.385563353697421, 444.0, 35.0, 22.0 ],
					"text" : "clear"
				}

			}
, 			{
				"box" : 				{
					"id" : "obj-38",
					"maxclass" : "button",
					"numinlets" : 1,
					"numoutlets" : 1,
					"outlettype" : [ "bang" ],
					"parameter_enable" : 0,
					"patching_rect" : [ 842.861381570498111, 486.681429743766785, 24.0, 24.0 ]
				}

			}
, 			{
				"box" : 				{
					"addpoints" : [ 53.346141961449632, 0.095468660990397, 0, 183.081484961171725, 1.0, 0, 397.144800910713172, 1.0, 0, 481.472773860532527, 0.485712572733561, 0, 1000.0, 0.0, 0 ],
					"id" : "obj-42",
					"linecolor" : [ 0.419607843137255, 0.654901960784314, 1.0, 1.0 ],
					"maxclass" : "function",
					"numinlets" : 1,
					"numoutlets" : 4,
					"outlettype" : [ "float", "", "", "bang" ],
					"parameter_enable" : 0,
					"patching_rect" : [ 870.745614528655892, 528.769927740097046, 200.0, 100.0 ],
					"presentation" : 1,
					"presentation_rect" : [ 147.385563353697421, 838.769927740097046, 200.0, 100.0 ],
					"textcolor" : [ 0.968627450980392, 0.968627450980392, 0.968627450980392, 0.0 ]
				}

			}
, 			{
				"box" : 				{
					"id" : "obj-43",
					"maxclass" : "newobj",
					"numinlets" : 2,
					"numoutlets" : 2,
					"outlettype" : [ "signal", "bang" ],
					"patching_rect" : [ 914.194714903831482, 644.008313243389125, 34.0, 22.0 ],
					"text" : "line~"
				}

			}
, 			{
				"box" : 				{
					"id" : "obj-37",
					"maxclass" : "button",
					"numinlets" : 1,
					"numoutlets" : 1,
					"outlettype" : [ "bang" ],
					"parameter_enable" : 0,
					"patching_rect" : [ 519.385563353697421, 486.681429743766785, 24.0, 24.0 ]
				}

			}
, 			{
				"box" : 				{
					"id" : "obj-34",
					"maxclass" : "kslider",
					"numinlets" : 2,
					"numoutlets" : 2,
					"outlettype" : [ "int", "int" ],
					"parameter_enable" : 0,
					"patching_rect" : [ 471.0, 321.0, 364.0, 57.0 ],
					"presentation" : 1,
					"presentation_rect" : [ 127.843397855758667, 991.666686654090881, 616.0, 91.0 ],
					"whitekeycolor" : [ 1.0, 1.0, 1.0, 1.0 ]
				}

			}
, 			{
				"box" : 				{
					"addpoints" : [ 33.885840511491317, 0.14373966217041, 0, 604.721349710268555, 0.517723410924276, 0, 727.969925560004526, 1.0, 0, 955.006775809518217, 0.989268137613932, 0, 974.467077259476468, 0.0, 0 ],
					"id" : "obj-23",
					"linecolor" : [ 0.419607843137255, 0.654901960784314, 1.0, 1.0 ],
					"maxclass" : "function",
					"numinlets" : 1,
					"numoutlets" : 4,
					"outlettype" : [ "float", "", "", "bang" ],
					"parameter_enable" : 0,
					"patching_rect" : [ 489.385563353697421, 533.0, 200.0, 100.0 ],
					"presentation" : 1,
					"presentation_rect" : [ 147.385563353697421, 468.0, 200.0, 100.0 ],
					"textcolor" : [ 0.968627450980392, 0.968627450980392, 0.968627450980392, 0.0 ]
				}

			}
, 			{
				"box" : 				{
					"id" : "obj-22",
					"maxclass" : "newobj",
					"numinlets" : 2,
					"numoutlets" : 2,
					"outlettype" : [ "signal", "bang" ],
					"patching_rect" : [ 549.718896687030792, 644.008313243389125, 34.0, 22.0 ],
					"text" : "line~"
				}

			}
, 			{
				"box" : 				{
					"angle" : 270.0,
					"background" : 1,
					"bgcolor" : [ 0.776470588235294, 0.768627450980392, 0.768627450980392, 1.0 ],
					"id" : "obj-12",
					"maxclass" : "panel",
					"mode" : 0,
					"numinlets" : 1,
					"numoutlets" : 0,
					"patching_rect" : [ 1603.666698575019836, 275.0, 128.0, 128.0 ],
					"presentation" : 1,
					"presentation_rect" : [ 631.730776965618134, 226.769927740097046, 118.9560187458992, 201.230072259902954 ],
					"proportion" : 0.5,
					"rounded" : 0
				}

			}
, 			{
				"box" : 				{
					"angle" : 270.0,
					"background" : 1,
					"bgcolor" : [ 0.776470588235294, 0.768627450980392, 0.768627450980392, 1.0 ],
					"id" : "obj-137",
					"maxclass" : "panel",
					"mode" : 0,
					"numinlets" : 1,
					"numoutlets" : 0,
					"patching_rect" : [ 1863.452346205711365, 139.419754087924957, 128.0, 128.0 ],
					"presentation" : 1,
					"presentation_rect" : [ 592.0, 773.657861173152924, 158.686795711517334, 201.230072259902954 ],
					"proportion" : 0.5,
					"rounded" : 0
				}

			}
, 			{
				"box" : 				{
					"angle" : 270.0,
					"background" : 1,
					"bgcolor" : [ 0.776470588235294, 0.768627450980392, 0.768627450980392, 1.0 ],
					"id" : "obj-100",
					"maxclass" : "panel",
					"mode" : 0,
					"numinlets" : 1,
					"numoutlets" : 0,
					"patching_rect" : [ 1473.666698575019836, 275.0, 128.0, 128.0 ],
					"presentation" : 1,
					"presentation_rect" : [ 400.0, 773.657861173152924, 181.686795711517334, 201.230072259902954 ],
					"proportion" : 0.5,
					"rounded" : 0
				}

			}
, 			{
				"box" : 				{
					"angle" : 270.0,
					"background" : 1,
					"bgcolor" : [ 0.776470588235294, 0.768627450980392, 0.768627450980392, 1.0 ],
					"id" : "obj-98",
					"maxclass" : "panel",
					"mode" : 0,
					"numinlets" : 1,
					"numoutlets" : 0,
					"patching_rect" : [ 1473.666698575019836, 146.5, 128.0, 128.0 ],
					"presentation" : 1,
					"presentation_rect" : [ 400.0, 439.452998489141464, 350.686795711517334, 323.230072259902954 ],
					"proportion" : 0.5,
					"rounded" : 0
				}

			}
, 			{
				"box" : 				{
					"angle" : 270.0,
					"background" : 1,
					"bgcolor" : [ 0.776470588235294, 0.768627450980392, 0.768627450980392, 1.0 ],
					"id" : "obj-68",
					"maxclass" : "panel",
					"mode" : 0,
					"numinlets" : 1,
					"numoutlets" : 0,
					"patching_rect" : [ 1733.666698575019836, 142.698498845100403, 128.0, 128.0 ],
					"presentation" : 1,
					"presentation_rect" : [ 400.0, 226.769927740097046, 222.802176058292389, 201.230072259902954 ],
					"proportion" : 0.5,
					"rounded" : 0
				}

			}
, 			{
				"box" : 				{
					"angle" : 270.0,
					"background" : 1,
					"bgcolor" : [ 0.776470588235294, 0.768627450980392, 0.768627450980392, 1.0 ],
					"id" : "obj-54",
					"maxclass" : "panel",
					"mode" : 0,
					"numinlets" : 1,
					"numoutlets" : 0,
					"patching_rect" : [ 1727.642840981483459, 261.341355562210083, 128.0, 128.0 ],
					"presentation" : 1,
					"presentation_rect" : [ 122.0, 602.887933433055878, 271.686795711517334, 372.0 ],
					"proportion" : 0.5,
					"rounded" : 0
				}

			}
, 			{
				"box" : 				{
					"angle" : 270.0,
					"background" : 1,
					"bgcolor" : [ 0.776470588235294, 0.768627450980392, 0.768627450980392, 1.0 ],
					"id" : "obj-53",
					"maxclass" : "panel",
					"mode" : 0,
					"numinlets" : 1,
					"numoutlets" : 0,
					"patching_rect" : [ 1857.642840981483459, 265.0, 128.0, 128.0 ],
					"presentation" : 1,
					"presentation_rect" : [ 122.0, 226.769927740097046, 271.686795711517334, 367.0 ],
					"proportion" : 0.5,
					"rounded" : 0
				}

			}
, 			{
				"box" : 				{
					"angle" : 270.0,
					"background" : 1,
					"bgcolor" : [ 0.07843137254902, 0.07843137254902, 0.07843137254902, 1.0 ],
					"id" : "obj-4",
					"maxclass" : "panel",
					"mode" : 0,
					"numinlets" : 1,
					"numoutlets" : 0,
					"patching_rect" : [ 1993.452346205711365, 139.419754087924957, 128.0, 128.0 ],
					"presentation" : 1,
					"presentation_rect" : [ 101.0, 157.0, 669.686795711517334, 947.666669845581055 ],
					"proportion" : 0.5
				}

			}
 ],
		"lines" : [ 			{
				"patchline" : 				{
					"destination" : [ "obj-45", 0 ],
					"order" : 0,
					"source" : [ "obj-1", 0 ]
				}

			}
, 			{
				"patchline" : 				{
					"destination" : [ "obj-48", 0 ],
					"order" : 2,
					"source" : [ "obj-1", 0 ]
				}

			}
, 			{
				"patchline" : 				{
					"destination" : [ "obj-49", 0 ],
					"order" : 1,
					"source" : [ "obj-1", 0 ]
				}

			}
, 			{
				"patchline" : 				{
					"destination" : [ "obj-25", 1 ],
					"source" : [ "obj-102", 0 ]
				}

			}
, 			{
				"patchline" : 				{
					"destination" : [ "obj-102", 0 ],
					"order" : 0,
					"source" : [ "obj-103", 0 ]
				}

			}
, 			{
				"patchline" : 				{
					"destination" : [ "obj-20", 1 ],
					"order" : 1,
					"source" : [ "obj-103", 0 ]
				}

			}
, 			{
				"patchline" : 				{
					"destination" : [ "obj-15", 1 ],
					"source" : [ "obj-104", 0 ]
				}

			}
, 			{
				"patchline" : 				{
					"destination" : [ "obj-6", 1 ],
					"order" : 0,
					"source" : [ "obj-126", 0 ]
				}

			}
, 			{
				"patchline" : 				{
					"destination" : [ "obj-6", 0 ],
					"order" : 1,
					"source" : [ "obj-126", 0 ]
				}

			}
, 			{
				"patchline" : 				{
					"destination" : [ "obj-6", 1 ],
					"order" : 0,
					"source" : [ "obj-127", 0 ]
				}

			}
, 			{
				"patchline" : 				{
					"destination" : [ "obj-6", 0 ],
					"order" : 1,
					"source" : [ "obj-127", 0 ]
				}

			}
, 			{
				"patchline" : 				{
					"destination" : [ "obj-135", 1 ],
					"source" : [ "obj-129", 1 ]
				}

			}
, 			{
				"patchline" : 				{
					"destination" : [ "obj-135", 0 ],
					"source" : [ "obj-129", 0 ]
				}

			}
, 			{
				"patchline" : 				{
					"destination" : [ "obj-131", 0 ],
					"hidden" : 1,
					"source" : [ "obj-130", 0 ]
				}

			}
, 			{
				"patchline" : 				{
					"destination" : [ "obj-26", 7 ],
					"hidden" : 1,
					"source" : [ "obj-131", 0 ]
				}

			}
, 			{
				"patchline" : 				{
					"destination" : [ "obj-26", 6 ],
					"hidden" : 1,
					"source" : [ "obj-132", 0 ]
				}

			}
, 			{
				"patchline" : 				{
					"destination" : [ "obj-30", 0 ],
					"source" : [ "obj-133", 0 ]
				}

			}
, 			{
				"patchline" : 				{
					"destination" : [ "obj-16", 0 ],
					"source" : [ "obj-14", 0 ]
				}

			}
, 			{
				"patchline" : 				{
					"destination" : [ "obj-103", 0 ],
					"order" : 1,
					"source" : [ "obj-15", 0 ]
				}

			}
, 			{
				"patchline" : 				{
					"destination" : [ "obj-17", 0 ],
					"order" : 0,
					"source" : [ "obj-15", 0 ]
				}

			}
, 			{
				"patchline" : 				{
					"destination" : [ "obj-17", 1 ],
					"source" : [ "obj-16", 0 ]
				}

			}
, 			{
				"patchline" : 				{
					"destination" : [ "obj-102", 1 ],
					"source" : [ "obj-17", 0 ]
				}

			}
, 			{
				"patchline" : 				{
					"destination" : [ "obj-55", 0 ],
					"source" : [ "obj-18", 0 ]
				}

			}
, 			{
				"patchline" : 				{
					"destination" : [ "obj-104", 0 ],
					"source" : [ "obj-2", 0 ]
				}

			}
, 			{
				"patchline" : 				{
					"destination" : [ "obj-25", 0 ],
					"source" : [ "obj-20", 0 ]
				}

			}
, 			{
				"patchline" : 				{
					"destination" : [ "obj-18", 1 ],
					"source" : [ "obj-22", 0 ]
				}

			}
, 			{
				"patchline" : 				{
					"destination" : [ "obj-22", 0 ],
					"source" : [ "obj-23", 1 ]
				}

			}
, 			{
				"patchline" : 				{
					"destination" : [ "obj-36", 0 ],
					"order" : 2,
					"source" : [ "obj-25", 0 ]
				}

			}
, 			{
				"patchline" : 				{
					"destination" : [ "obj-39", 0 ],
					"order" : 1,
					"source" : [ "obj-25", 0 ]
				}

			}
, 			{
				"patchline" : 				{
					"destination" : [ "obj-44", 0 ],
					"order" : 0,
					"source" : [ "obj-25", 0 ]
				}

			}
, 			{
				"patchline" : 				{
					"destination" : [ "obj-45", 0 ],
					"order" : 3,
					"source" : [ "obj-25", 0 ]
				}

			}
, 			{
				"patchline" : 				{
					"destination" : [ "obj-48", 0 ],
					"order" : 5,
					"source" : [ "obj-25", 0 ]
				}

			}
, 			{
				"patchline" : 				{
					"destination" : [ "obj-49", 0 ],
					"order" : 4,
					"source" : [ "obj-25", 0 ]
				}

			}
, 			{
				"patchline" : 				{
					"destination" : [ "obj-130", 0 ],
					"hidden" : 1,
					"source" : [ "obj-26", 3 ]
				}

			}
, 			{
				"patchline" : 				{
					"destination" : [ "obj-28", 0 ],
					"hidden" : 1,
					"source" : [ "obj-26", 1 ]
				}

			}
, 			{
				"patchline" : 				{
					"destination" : [ "obj-30", 0 ],
					"midpoints" : [ 1072.5, 1624.615281164646149, 1019.0, 1624.615281164646149, 1019.0, 1505.115281164646149, 867.5, 1505.115281164646149 ],
					"source" : [ "obj-26", 0 ]
				}

			}
, 			{
				"patchline" : 				{
					"destination" : [ "obj-9", 0 ],
					"hidden" : 1,
					"source" : [ "obj-26", 2 ]
				}

			}
, 			{
				"patchline" : 				{
					"destination" : [ "obj-75", 0 ],
					"hidden" : 1,
					"source" : [ "obj-28", 0 ]
				}

			}
, 			{
				"patchline" : 				{
					"destination" : [ "obj-42", 0 ],
					"source" : [ "obj-3", 0 ]
				}

			}
, 			{
				"patchline" : 				{
					"destination" : [ "obj-6", 1 ],
					"order" : 1,
					"source" : [ "obj-30", 0 ]
				}

			}
, 			{
				"patchline" : 				{
					"destination" : [ "obj-6", 0 ],
					"order" : 2,
					"source" : [ "obj-30", 0 ]
				}

			}
, 			{
				"patchline" : 				{
					"destination" : [ "obj-92", 0 ],
					"order" : 0,
					"source" : [ "obj-30", 0 ]
				}

			}
, 			{
				"patchline" : 				{
					"destination" : [ "obj-104", 0 ],
					"source" : [ "obj-31", 0 ]
				}

			}
, 			{
				"patchline" : 				{
					"destination" : [ "obj-26", 0 ],
					"source" : [ "obj-32", 0 ]
				}

			}
, 			{
				"patchline" : 				{
					"destination" : [ "obj-14", 0 ],
					"source" : [ "obj-33", 0 ]
				}

			}
, 			{
				"patchline" : 				{
					"destination" : [ "obj-1", 0 ],
					"order" : 2,
					"source" : [ "obj-34", 0 ]
				}

			}
, 			{
				"patchline" : 				{
					"destination" : [ "obj-37", 0 ],
					"order" : 3,
					"source" : [ "obj-34", 0 ]
				}

			}
, 			{
				"patchline" : 				{
					"destination" : [ "obj-38", 0 ],
					"order" : 1,
					"source" : [ "obj-34", 0 ]
				}

			}
, 			{
				"patchline" : 				{
					"destination" : [ "obj-8", 0 ],
					"order" : 0,
					"source" : [ "obj-34", 0 ]
				}

			}
, 			{
				"patchline" : 				{
					"destination" : [ "obj-41", 1 ],
					"source" : [ "obj-36", 0 ]
				}

			}
, 			{
				"patchline" : 				{
					"destination" : [ "obj-23", 0 ],
					"source" : [ "obj-37", 0 ]
				}

			}
, 			{
				"patchline" : 				{
					"destination" : [ "obj-42", 0 ],
					"source" : [ "obj-38", 0 ]
				}

			}
, 			{
				"patchline" : 				{
					"destination" : [ "obj-41", 2 ],
					"source" : [ "obj-39", 0 ]
				}

			}
, 			{
				"patchline" : 				{
					"destination" : [ "obj-73", 0 ],
					"source" : [ "obj-41", 0 ]
				}

			}
, 			{
				"patchline" : 				{
					"destination" : [ "obj-43", 0 ],
					"source" : [ "obj-42", 1 ]
				}

			}
, 			{
				"patchline" : 				{
					"destination" : [ "obj-73", 1 ],
					"source" : [ "obj-43", 0 ]
				}

			}
, 			{
				"patchline" : 				{
					"destination" : [ "obj-41", 3 ],
					"source" : [ "obj-44", 0 ]
				}

			}
, 			{
				"patchline" : 				{
					"destination" : [ "obj-52", 3 ],
					"source" : [ "obj-45", 0 ]
				}

			}
, 			{
				"patchline" : 				{
					"destination" : [ "obj-52", 1 ],
					"source" : [ "obj-48", 0 ]
				}

			}
, 			{
				"patchline" : 				{
					"destination" : [ "obj-52", 2 ],
					"source" : [ "obj-49", 0 ]
				}

			}
, 			{
				"patchline" : 				{
					"destination" : [ "obj-40", 0 ],
					"source" : [ "obj-5", 0 ]
				}

			}
, 			{
				"patchline" : 				{
					"destination" : [ "obj-52", 0 ],
					"source" : [ "obj-50", 0 ]
				}

			}
, 			{
				"patchline" : 				{
					"destination" : [ "obj-50", 0 ],
					"source" : [ "obj-51", 0 ]
				}

			}
, 			{
				"patchline" : 				{
					"destination" : [ "obj-18", 0 ],
					"source" : [ "obj-52", 0 ]
				}

			}
, 			{
				"patchline" : 				{
					"destination" : [ "obj-58", 0 ],
					"source" : [ "obj-55", 0 ]
				}

			}
, 			{
				"patchline" : 				{
					"destination" : [ "obj-30", 0 ],
					"source" : [ "obj-58", 0 ]
				}

			}
, 			{
				"patchline" : 				{
					"destination" : [ "obj-33", 0 ],
					"source" : [ "obj-59", 0 ]
				}

			}
, 			{
				"patchline" : 				{
					"destination" : [ "obj-129", 1 ],
					"source" : [ "obj-6", 1 ]
				}

			}
, 			{
				"patchline" : 				{
					"destination" : [ "obj-129", 0 ],
					"source" : [ "obj-6", 0 ]
				}

			}
, 			{
				"patchline" : 				{
					"destination" : [ "obj-31", 0 ],
					"source" : [ "obj-60", 0 ]
				}

			}
, 			{
				"patchline" : 				{
					"destination" : [ "obj-58", 1 ],
					"source" : [ "obj-63", 0 ]
				}

			}
, 			{
				"patchline" : 				{
					"destination" : [ "obj-6", 2 ],
					"source" : [ "obj-7", 0 ]
				}

			}
, 			{
				"patchline" : 				{
					"destination" : [ "obj-55", 1 ],
					"source" : [ "obj-73", 0 ]
				}

			}
, 			{
				"patchline" : 				{
					"destination" : [ "obj-26", 5 ],
					"hidden" : 1,
					"source" : [ "obj-75", 0 ]
				}

			}
, 			{
				"patchline" : 				{
					"destination" : [ "obj-15", 0 ],
					"order" : 0,
					"source" : [ "obj-8", 0 ]
				}

			}
, 			{
				"patchline" : 				{
					"destination" : [ "obj-20", 0 ],
					"order" : 1,
					"source" : [ "obj-8", 0 ]
				}

			}
, 			{
				"patchline" : 				{
					"destination" : [ "obj-23", 0 ],
					"source" : [ "obj-81", 0 ]
				}

			}
, 			{
				"patchline" : 				{
					"destination" : [ "obj-132", 0 ],
					"hidden" : 1,
					"source" : [ "obj-9", 0 ]
				}

			}
, 			{
				"patchline" : 				{
					"destination" : [ "obj-91", 0 ],
					"source" : [ "obj-90", 0 ]
				}

			}
, 			{
				"patchline" : 				{
					"destination" : [ "obj-127", 0 ],
					"order" : 1,
					"source" : [ "obj-91", 0 ]
				}

			}
, 			{
				"patchline" : 				{
					"destination" : [ "obj-99", 0 ],
					"order" : 0,
					"source" : [ "obj-91", 0 ]
				}

			}
, 			{
				"patchline" : 				{
					"destination" : [ "obj-91", 0 ],
					"source" : [ "obj-92", 0 ]
				}

			}
, 			{
				"patchline" : 				{
					"destination" : [ "obj-75", 0 ],
					"source" : [ "obj-93", 0 ]
				}

			}
, 			{
				"patchline" : 				{
					"destination" : [ "obj-132", 0 ],
					"source" : [ "obj-94", 0 ]
				}

			}
, 			{
				"patchline" : 				{
					"destination" : [ "obj-131", 0 ],
					"source" : [ "obj-95", 0 ]
				}

			}
, 			{
				"patchline" : 				{
					"destination" : [ "obj-92", 0 ],
					"source" : [ "obj-99", 0 ]
				}

			}
 ],
		"parameters" : 		{
			"obj-129" : [ "live.gain~[2]", "MASTER", 0 ],
			"obj-7" : [ "live.dial", "PAN", 0 ],
			"obj-93" : [ "live.dial[1]", "CUTOFF", 0 ],
			"obj-94" : [ "live.dial[2]", "GAIN", 0 ],
			"obj-95" : [ "live.dial[3]", "Q", 0 ],
			"parameterbanks" : 			{

			}
,
			"inherited_shortname" : 1
		}
,
		"dependency_cache" : [ 			{
				"name" : "pan2.maxpat",
				"bootpath" : "~/Library/Application Support/Cycling '74/Max 8/Examples/spatialization/panning/lib",
				"patcherrelativepath" : "../../../../../../../../Users/AlexDiez/Library/Application Support/Cycling '74/Max 8/Examples/spatialization/panning/lib",
				"type" : "JSON",
				"implicit" : 1
			}
 ],
		"autosave" : 0,
		"styles" : [ 			{
				"name" : "AudioStatus_Menu",
				"default" : 				{
					"bgfillcolor" : 					{
						"type" : "color",
						"color" : [ 0.294118, 0.313726, 0.337255, 1 ],
						"color1" : [ 0.454902, 0.462745, 0.482353, 0 ],
						"color2" : [ 0.290196, 0.309804, 0.301961, 1 ],
						"angle" : 270,
						"proportion" : 0.39,
						"autogradient" : 0
					}

				}
,
				"parentstyle" : "",
				"multi" : 0
			}
, 			{
				"name" : "jpatcher001",
				"default" : 				{
					"editing_bgcolor" : [ 0.898039215686275, 0.898039215686275, 0.898039215686275, 1.0 ]
				}
,
				"parentstyle" : "",
				"multi" : 0
			}
 ]
	}

}
